<svg xmlns="http://www.w3.org/2000/svg" width="860" height="240" viewBox="0 0 860 240"><g transform="translate(-11 -11) scale(0.20893141945773525)" fill="#ef623f"><path d="M216 843V480c0-43 17-78 58-101l311-157c53-27 116-4 116 67v121L441 541c-31 16-48 38-48 69v133c0 12-5 20-17 26L220 846q-4 2-4-3Z"/><path d="m701 410 284 153c34 18 53 44 53 85v223c0 38-18 64-52 83l-125 67c-37 20-66 15-98-2L482 872c-31-16-48-43-48-73V641c0-26 20-37 41-26l340 181c23 12 44 13 66 2l43-20q9-4 0-10L743 669c-29-16-42-36-42-65Z"/></g><g transform="translate(254 151)" fill="#f4f2ed"><path d="M140 0L140 1440L735 1440Q756 1440 789 1438.5Q822 1437 850 1432Q975 1413 1056.5 1349Q1138 1285 1177.5 1187.5Q1217 1090 1217 971Q1217 795 1128 668.5Q1039 542 855 512L752 503L381 503L381 0ZM967 0L683 586L928 640L1240 0ZM381 728L725 728Q745 728 770 730Q795 732 816 738Q876 753 910.5 791Q945 829 959.5 877Q974 925 974 971Q974 1017 959.5 1065.5Q945 1114 910.5 1152Q876 1190 816 1205Q795 1211 770 1212.5Q745 1214 725 1214L381 1214Z" transform="translate(0 0) scale(0.0615 -0.0615)"/><path d="M631 -30Q467 -30 343 41Q219 112 149.5 238Q80 364 80 528Q80 705 148 835.5Q216 966 337 1038Q458 1110 617 1110Q785 1110 902.5 1031.5Q1020 953 1077 810Q1134 667 1120 473L881 473L881 561Q880 737 819 818Q758 899 627 899Q479 899 407 807.5Q335 716 335 540Q335 376 407 286Q479 196 617 196Q706 196 770.5 235.5Q835 275 870 350L1108 278Q1046 132 916.5 51Q787 -30 631 -30ZM259 473L259 655L1002 655L1002 473Z" transform="translate(78.17999999999999 0) scale(0.0615 -0.0615)"/><path d="M160 0L160 1470L401 1470L401 0Z" transform="translate(149.226 0) scale(0.0615 -0.0615)"/><path d="M442 -30Q325 -30 244 14.5Q163 59 121.5 133Q80 207 80 296Q80 374 106 436.5Q132 499 186 544.5Q240 590 326 619Q391 640 478.5 657Q566 674 668.5 688.5Q771 703 883 720L797 671Q798 783 747 836Q696 889 575 889Q502 889 434 855Q366 821 339 738L119 807Q159 944 271.5 1027Q384 1110 575 1110Q719 1110 828.5 1063Q938 1016 991 909Q1020 852 1026 792.5Q1032 733 1032 663L1032 0L821 0L821 234L856 196Q783 79 685.5 24.5Q588 -30 442 -30ZM490 162Q572 162 630 191Q688 220 722.5 262Q757 304 769 341Q788 387 790.5 446.5Q793 506 793 543L867 521Q758 504 680 491Q602 478 546 466.5Q490 455 447 441Q405 426 376 406Q347 386 331.5 360Q316 334 316 299Q316 259 336 228.5Q356 198 394.5 180Q433 162 490 162Z" transform="translate(180.7275 0) scale(0.0615 -0.0615)"/><path d="M282 -480L490 91L494 -77L23 1080L274 1080L608 224L544 224L869 1080L1110 1080L508 -480Z" transform="translate(244.88549999999998 0) scale(0.0615 -0.0615)"/><path d="M140 0L140 1440L711 1440Q857 1440 950.5 1381.5Q1044 1323 1089.5 1232Q1135 1141 1135 1044Q1135 925 1078.5 842Q1022 759 925 730L925 780Q1061 749 1131.5 651Q1202 553 1202 428Q1202 300 1153 204Q1104 108 1007.5 54Q911 0 769 0ZM384 227L739 227Q802 227 852 252.5Q902 278 930.5 324.5Q959 371 959 435Q959 493 934 539Q909 585 861 612.5Q813 640 746 640L384 640ZM384 865L708 865Q760 865 801 885Q842 905 866 944Q890 983 890 1040Q890 1115 842 1165Q794 1215 708 1215L384 1215Z" transform="translate(310.70399999999995 0) scale(0.0615 -0.0615)"/><path d="M282 -480L490 91L494 -77L23 1080L274 1080L608 224L544 224L869 1080L1110 1080L508 -480Z" transform="translate(385.31699999999995 0) scale(0.0615 -0.0615)"/><path d="M773 0Q666 -20 563.5 -17.5Q461 -15 380 20.5Q299 56 257 133Q220 203 218 276Q216 349 216 441L216 1380L456 1380L456 455Q456 390 457.5 341Q459 292 478 261Q514 201 593 194Q672 187 773 202ZM20 891L20 1080L773 1080L773 891Z" transform="translate(456.05549999999994 0) scale(0.0615 -0.0615)"/><path d="M631 -30Q467 -30 343 41Q219 112 149.5 238Q80 364 80 528Q80 705 148 835.5Q216 966 337 1038Q458 1110 617 1110Q785 1110 902.5 1031.5Q1020 953 1077 810Q1134 667 1120 473L881 473L881 561Q880 737 819 818Q758 899 627 899Q479 899 407 807.5Q335 716 335 540Q335 376 407 286Q479 196 617 196Q706 196 770.5 235.5Q835 275 870 350L1108 278Q1046 132 916.5 51Q787 -30 631 -30ZM259 473L259 655L1002 655L1002 473Z" transform="translate(502.93199999999996 0) scale(0.0615 -0.0615)"/></g></svg>
